<svg width="151" height="43" viewBox="0 0 151 43" fill="none" xmlns="http://www.w3.org/2000/svg">
<path fill-rule="evenodd" clip-rule="evenodd" d="M2.68982 4.52988L36.1998 0.999881C36.6968 0.949488 37.1936 1.09792 37.5815 1.41273C37.9694 1.72755 38.2169 2.18313 38.2698 2.67988L41.7998 36.1999C41.8502 36.6969 41.7018 37.1937 41.387 37.5816C41.0722 37.9694 40.6166 38.2169 40.1198 38.2699L6.60982 41.7999C6.11171 41.8504 5.6138 41.7023 5.22431 41.3877C4.83482 41.0731 4.58524 40.6175 4.52982 40.1199L0.999824 6.60988C0.949446 6.11021 1.09894 5.61092 1.41562 5.22116C1.73231 4.83139 2.19042 4.58285 2.68982 4.52988Z" fill="#313C4E"/>
<path fill-rule="evenodd" clip-rule="evenodd" d="M6.27939 8.58998L30.6294 3.85998C31.4249 3.70738 32.2485 3.87643 32.9196 4.33006C33.5906 4.7837 34.0545 5.48491 34.2094 6.27998L38.9994 30.63C39.152 31.4255 38.9829 32.2491 38.5293 32.9202C38.0757 33.5912 37.3745 34.0551 36.5794 34.21L12.1794 39C11.3827 39.1528 10.5579 38.984 9.88517 38.5306C9.21249 38.0771 8.74663 37.3758 8.58939 36.58L3.85939 12.18C3.78238 11.7853 3.78389 11.3794 3.86385 10.9853C3.94381 10.5913 4.10065 10.2169 4.32539 9.88346C4.55014 9.55005 4.83839 9.26421 5.17367 9.04226C5.50895 8.82032 5.88468 8.66663 6.27939 8.58998Z" fill="#F0A93B"/>
<path d="M22.3806 21.7099V14.9399H25.1306C25.7116 14.9295 26.291 15.0036 26.8506 15.1599C27.3266 15.2862 27.7721 15.5073 28.1606 15.8099C28.5274 16.089 28.8165 16.4573 29.0006 16.8799C29.1876 17.333 29.2795 17.8197 29.2706 18.3099C29.2939 18.7825 29.2107 19.2543 29.0272 19.6904C28.8438 20.1266 28.5647 20.516 28.2106 20.8299C27.832 21.1507 27.3885 21.386 26.9106 21.5199C26.3328 21.6706 25.7377 21.7446 25.1406 21.7399L22.3806 21.7099ZM17.9006 10.7799V32.3799H22.3806V25.9299H25.2306C25.8759 25.932 26.5206 25.8919 27.1606 25.8099C27.7403 25.7268 28.3122 25.5964 28.8706 25.4199C29.3821 25.2512 29.8774 25.037 30.3506 24.7799C30.791 24.5432 31.2035 24.2581 31.5806 23.9299C32.3309 23.283 32.917 22.4673 33.2906 21.5499C33.6941 20.5287 33.8913 19.4377 33.8706 18.3399C33.8913 17.2421 33.6941 16.151 33.2906 15.1299C33.1068 14.6708 32.8648 14.2373 32.5706 13.8399C32.2773 13.4508 31.942 13.0953 31.5706 12.7799C31.1961 12.4484 30.7831 12.163 30.3406 11.9299C29.8682 11.6711 29.3727 11.4568 28.8606 11.2899C28.3022 11.1134 27.7303 10.9829 27.1506 10.8999C26.5106 10.8179 25.8659 10.7778 25.2206 10.7799H17.9006ZM15.1206 32.3799V17.0499H10.6406V32.3799H15.1206ZM15.1206 15.2599V10.7799H10.6406V15.2599H15.1206Z" fill="#313C4E"/>
<path fill-rule="evenodd" clip-rule="evenodd" d="M126.121 6.06006H148.671C149.076 6.06268 149.463 6.22472 149.75 6.51108C150.036 6.79745 150.198 7.18509 150.201 7.59006V35.5901C150.198 35.995 150.036 36.3827 149.75 36.669C149.463 36.9554 149.076 37.1174 148.671 37.1201H126.121C125.716 37.1174 125.328 36.9554 125.042 36.669C124.755 36.3827 124.593 35.995 124.591 35.5901V7.59006C124.593 7.18509 124.755 6.79745 125.042 6.51108C125.328 6.22472 125.716 6.06268 126.121 6.06006ZM71.9305 6.06006H94.4905C94.8928 6.06532 95.2769 6.22883 95.5595 6.5152C95.8421 6.80156 96.0006 7.18772 96.0005 7.59006V35.5901C96.0006 35.9941 95.8407 36.3818 95.556 36.6684C95.2712 36.9551 94.8846 37.1174 94.4805 37.1201H71.9305C71.5256 37.1174 71.1379 36.9554 70.8516 36.669C70.5652 36.3827 70.4032 35.995 70.4005 35.5901V7.59006C70.4032 7.18509 70.5652 6.79745 70.8516 6.51108C71.1379 6.22472 71.5256 6.06268 71.9305 6.06006ZM99.0005 6.06006H121.561C121.966 6.06268 122.353 6.22472 122.64 6.51108C122.926 6.79745 123.088 7.18509 123.091 7.59006V35.5901C123.088 35.995 122.926 36.3827 122.64 36.669C122.353 36.9554 121.966 37.1174 121.561 37.1201H99.0005C98.5965 37.1174 98.2099 36.9551 97.9251 36.6684C97.6404 36.3818 97.4805 35.9941 97.4805 35.5901V7.59006C97.4805 7.186 97.6404 6.79835 97.9251 6.51171C98.2099 6.22506 98.5965 6.0627 99.0005 6.06006ZM44.8205 6.06006H67.3905C67.7955 6.06268 68.1832 6.22472 68.4695 6.51108C68.7559 6.79745 68.9179 7.18509 68.9205 7.59006V35.5901C68.9179 35.995 68.7559 36.3827 68.4695 36.669C68.1832 36.9554 67.7955 37.1174 67.3905 37.1201H44.8405C44.4356 37.1174 44.0479 36.9554 43.7616 36.669C43.4752 36.3827 43.3132 35.995 43.3105 35.5901V7.59006C43.3132 7.18509 43.4752 6.79745 43.7616 6.51108C44.0479 6.22472 44.4356 6.06268 44.8405 6.06006H44.8205ZM134.241 28.3601V23.1401H142.131V19.3701H134.241V14.7701H144.241V10.7701H130.341V32.3701H144.411V28.3701L134.241 28.3601ZM73.0705 21.5501C73.07 22.341 73.1369 23.1305 73.2705 23.9101C73.3939 24.6546 73.5916 25.3849 73.8605 26.0901C74.1343 26.7658 74.469 27.4151 74.8605 28.0301C75.217 28.6175 75.6324 29.167 76.1005 29.6701C76.5379 30.161 77.0237 30.6066 77.5505 31.0001C78.0905 31.3932 78.6704 31.7284 79.2805 32.0001C79.8986 32.2645 80.5419 32.4655 81.2005 32.6001C82.5461 32.8804 83.935 32.8804 85.2805 32.6001C85.9363 32.4669 86.5764 32.2658 87.1905 32.0001C87.8061 31.7265 88.3924 31.3915 88.9405 31.0001C89.487 30.6157 89.9929 30.1768 90.4505 29.6901C90.9194 29.1673 91.3379 28.6014 91.7005 28.0001C92.0713 27.3898 92.3859 26.7472 92.6405 26.0801C92.9082 25.3737 93.1091 24.6439 93.2405 23.9001C93.3662 23.1197 93.4297 22.3305 93.4305 21.5401C93.4325 20.7486 93.3622 19.9587 93.2205 19.1801C93.0857 18.4359 92.8815 17.7061 92.6105 17.0001C92.358 16.3321 92.0433 15.6892 91.6705 15.0801C90.9551 13.9235 90.017 12.9208 88.9105 12.1301C88.3622 11.7444 87.7798 11.4097 87.1705 11.1301C85.9239 10.576 84.5748 10.2897 83.2105 10.2897C81.8463 10.2897 80.4972 10.576 79.2505 11.1301C78.0171 11.6859 76.9109 12.4892 76.0005 13.4901C75.5355 13.9956 75.1202 14.5448 74.7605 15.1301C73.5957 17.0899 72.9872 19.3302 73.0005 21.6101L73.0705 21.5501ZM77.1705 21.4301C77.1705 20.9247 77.2073 20.4201 77.2805 19.9201C77.35 19.4569 77.4639 19.0015 77.6205 18.5601C77.8994 17.7433 78.3303 16.9866 78.8905 16.3301C79.149 16.0245 79.4447 15.7524 79.7705 15.5201C80.0809 15.2813 80.4162 15.0768 80.7705 14.9101C81.1641 14.7374 81.5771 14.6132 82.0005 14.5401C82.4222 14.4582 82.851 14.418 83.2805 14.4201C83.7137 14.4217 84.1457 14.4652 84.5705 14.5501C84.9763 14.6389 85.3718 14.7696 85.7505 14.9401C86.1268 15.1088 86.4825 15.3202 86.8105 15.5701C87.1298 15.8142 87.4245 16.0889 87.6905 16.3901C88.2619 17.0456 88.7062 17.8018 89.0005 18.6201C89.1482 19.069 89.252 19.5311 89.3105 20.0001C89.3804 20.5003 89.4138 21.005 89.4105 21.5101C89.4134 22.0019 89.38 22.4932 89.3105 22.9801C89.2495 23.4387 89.1457 23.8907 89.0005 24.3301C88.7189 25.1405 88.2919 25.8928 87.7405 26.5501C87.4773 26.8569 87.1823 27.1352 86.8605 27.3801C86.5322 27.6267 86.1765 27.8348 85.8005 28.0001C85.4188 28.1718 85.0199 28.3025 84.6105 28.3901C84.18 28.4827 83.7409 28.5296 83.3005 28.5301C82.8646 28.5279 82.4296 28.4877 82.0005 28.4101C81.584 28.3161 81.1784 28.1786 80.7905 28.0001C80.42 27.8343 80.0681 27.6298 79.7405 27.3901C79.4147 27.1577 79.119 26.8856 78.8605 26.5801C78.3024 25.9258 77.8716 25.1728 77.5905 24.3601C77.4397 23.9169 77.326 23.462 77.2505 23.0001C77.178 22.5101 77.1412 22.0154 77.1405 21.5201V21.4001L77.1705 21.4301ZM102.171 10.7601V14.7601H108.291V32.3601H112.191V14.7701H118.371V10.7701L102.171 10.7601ZM60.7705 10.7601V25.0001L60.3405 24.3801L59.3405 22.8001C59.1472 22.4934 58.9472 22.1834 58.7405 21.8701L58.0805 21.0001L57.4505 20.0001L56.9005 19.1901L51.2005 10.7801H47.5205V32.3801H51.4305V18.0601L51.8005 18.6501L52.2105 19.2901L52.7505 20.1001C53.1505 20.6901 53.5705 21.3301 54.0205 22.0401C54.4705 22.7501 54.9205 23.4301 55.3705 24.0401L61.0005 32.3801H64.6805L64.7405 10.7801H60.8305L60.7705 10.7601Z" fill="#313C4E"/>
</svg>
